<svg version="1.2" xmlns="http://www.w3.org/2000/svg" viewBox="0 0 1000 560">
	<style>
		.s0 { fill: #ff3d00 } 
	</style>
	<g id="_Artboards_">
	</g>
	<g id="Layer 1">
		<g id="&lt;Group&gt;">
			<g id="&lt;Group&gt;">
			</g>
		</g>
		<g id="&lt;Group&gt;">
			<path id="&lt;Path&gt;" class="s0" d="m171.92 56.75c32.61 14.98 65.02 30.39 97.58 45.49 0.3 24.92-0.19 49.86 0.74 74.76 0.06 44.33 0.38 88.66 0.53 132.99 0.68 10.67 0.4 21.38 0.49 32.07 0.1 20.95 0.09 41.91 0.35 62.86 53.11-113.37 106.12-226.8 159.2-340.2q1.81-4.08 3.94-8.01c23.26 10.87 46.48 21.82 69.76 32.63 9.23 4.46 18.68 8.45 27.78 13.16-0.04 55.83 0.73 111.66 1.01 167.49 0.19 44.89 0.59 89.79 0.95 134.68 17.2-36.08 33.92-72.38 50.9-108.55 35.75-76.28 71.38-152.61 107.13-228.89 1.61-3.45 3.23-6.91 4.74-10.41 13.22 5.54 26.01 12.08 39.05 18.03 19.54 9.14 39.11 18.21 58.64 27.37 0.54 55.91 0.89 111.83 1.14 167.75 0.62 44.86 0.56 89.74 1.02 134.6 16.82-34.9 32.82-70.21 49.42-105.22 22.23-47.29 44.18-94.71 66.48-141.98 20.74 10.06 41.8 19.45 62.55 29.51-48.93 105.05-98.22 209.93-147.25 314.93-30.74-14.88-61.82-29.06-92.7-43.63 0.2-105.91 0.22-211.83 0.33-317.74-17.59 36.65-34.69 73.55-52.05 110.31-39.47 83.67-78.77 167.42-118.29 251.07-30.66-14.99-61.8-29.02-92.64-43.67 0.06-83.03 0.08-166.08 0.29-249.09 0.2-22.94 0.13-45.88 0.09-68.82-36.8 77.86-73.39 155.82-110.1 233.72-20.07 42.59-40.16 85.16-60.09 127.81-30.78-14.73-61.78-28.99-92.65-43.53q0.03-135.12 0.15-270.24c-0.12-15.94 0.21-31.89-0.1-47.82-18.52 40.37-37.61 80.46-56.38 120.71q-32.59 69.88-65.38 139.66c-0.39-0.01-1.16-0.03-1.55-0.03-21.04-9.59-41.86-19.64-62.87-29.28 1.57-1.96 2.69-4.21 3.65-6.52 48.08-102.64 96.08-205.32 144.14-307.97z"/>
		</g>
	</g>
</svg>
